<svg version="1.1" id="Layer_1" xmlns="http://www.w3.org/2000/svg" xmlns:xlink="http://www.w3.org/1999/xlink" x="0px" y="0px"
	 width="100%" viewBox="0 0 4096 4096" enable-background="new 0 0 4096 4096" xml:space="preserve">
<path fill="#ffffff" opacity="0.0" stroke="none" 
	d="
M2260.000000,4098.000000 
	C1506.666626,4098.000000 754.333313,4098.000000 2.000000,4098.000000 
	C2.000000,2732.666748 2.000000,1367.333374 2.000000,2.000000 
	C1367.333374,2.000000 2732.666748,2.000000 4098.000000,2.000000 
	C4098.000000,1367.333374 4098.000000,2732.666748 4098.000000,4098.000000 
	C3485.666748,4098.000000 2873.333252,4098.000000 2260.000000,4098.000000 
M3459.516357,1549.075928 
	C3459.110352,1548.567383 3458.704346,1548.058838 3458.311279,1545.733154 
	C3456.985840,1523.184326 3456.286865,1500.576904 3454.178711,1478.101440 
	C3451.481934,1449.351562 3448.190918,1420.632568 3444.197754,1392.034058 
	C3435.122314,1327.043091 3420.624268,1263.188599 3401.869385,1200.328247 
	C3375.920410,1113.355591 3342.208984,1029.523804 3299.895020,949.155518 
	C3274.270996,900.486816 3246.118164,853.388062 3215.172363,807.924683 
	C3176.337158,750.870728 3133.581299,696.900452 3086.642822,646.359680 
	C3053.333252,610.493408 3018.362549,576.261047 2981.579834,543.849609 
	C2934.793213,502.623169 2885.538574,464.669952 2833.753418,430.042419 
	C2772.500000,389.083435 2708.378906,353.158936 2641.378174,322.375519 
	C2594.155518,300.679108 2545.939453,281.519135 2496.646973,265.154266 
	C2445.473389,248.164810 2393.457520,234.223709 2340.632324,223.225189 
	C2285.598633,211.766907 2230.111084,203.482803 2174.156982,198.481827 
	C2150.012695,196.323914 2125.752686,195.129440 2101.517822,194.384491 
	C2054.583984,192.941772 2007.606201,192.526093 1960.753784,196.074585 
	C1928.657959,198.505447 1896.624634,201.995682 1864.651978,205.763977 
	C1817.728149,211.294418 1771.428589,220.449722 1725.463989,231.324875 
	C1662.556641,246.208679 1600.996094,265.447693 1540.770142,288.893372 
	C1468.344360,317.088348 1398.756104,351.147491 1331.903687,390.796448 
	C1269.066650,428.063965 1209.623901,470.163116 1153.182739,516.507874 
	C1118.441650,545.034363 1085.360596,575.445801 1053.549072,607.165283 
	C1034.716309,625.943604 1016.996765,645.854370 999.078491,665.530823 
	C958.900635,709.650940 922.590210,756.844971 888.892761,806.040100 
	C847.620850,866.293335 811.289734,929.395691 779.966675,995.415405 
	C755.394226,1047.207031 734.049072,1100.266724 715.746948,1154.552490 
	C700.328674,1200.284546 687.511658,1246.772461 676.958252,1293.866211 
	C663.062195,1355.875977 652.958008,1418.508545 648.096802,1481.880737 
	C645.455200,1516.317505 643.807373,1550.845581 642.496826,1585.362305 
	C641.905273,1600.942749 643.618530,1616.596191 643.607788,1632.216187 
	C643.583557,1667.500732 645.734436,1702.648315 649.715271,1737.678345 
	C653.014771,1766.713013 656.027832,1795.813843 660.548767,1824.669067 
	C669.460449,1881.548462 682.262573,1937.612061 698.270264,1992.937744 
	C720.241577,2068.874512 748.326111,2142.490234 782.668762,2213.661377 
	C815.863342,2282.452881 854.440247,2348.120605 898.248108,2410.748779 
	C939.158081,2469.233887 984.370789,2524.170654 1033.492432,2575.853516 
	C1065.151978,2609.164307 1098.629150,2640.651855 1133.552612,2670.571777 
	C1185.215454,2714.832764 1239.748047,2755.220703 1297.223145,2791.593262 
	C1346.782349,2822.955322 1398.028320,2851.293945 1451.317139,2875.853271 
	C1461.370728,2880.486572 1470.306885,2886.255127 1478.091187,2894.403564 
	C1499.721436,2917.045166 1521.924072,2939.139893 1543.886353,2961.464355 
	C1544.578247,2962.167725 1545.115601,2963.022705 1544.029907,2964.183350 
	C1522.229980,2966.005859 1500.422485,2967.742676 1478.631958,2969.671387 
	C1449.565552,2972.243652 1420.480103,2974.659180 1391.460327,2977.690430 
	C1342.656372,2982.788574 1293.860352,2988.004150 1245.131714,2993.768311 
	C1207.916626,2998.170898 1170.664429,3002.596436 1133.688232,3008.608643 
	C1064.918579,3019.789551 996.214233,3031.466553 927.711670,3044.171875 
	C849.635437,3058.652832 772.359558,3076.866699 695.844421,3098.157227 
	C603.846985,3123.755859 513.249634,3153.334961 426.552948,3193.889160 
	C367.867065,3221.340820 311.483032,3252.535645 263.294403,3296.529297 
	C238.548904,3319.120117 217.612213,3344.770264 204.881454,3376.412354 
	C194.747131,3401.600830 192.912964,3427.451172 198.017670,3453.755615 
	C202.594513,3477.340576 213.655685,3498.171387 227.876724,3517.365967 
	C252.178391,3550.166504 283.262054,3575.585449 316.751434,3598.240723 
	C372.989624,3636.285156 434.250153,3664.586182 497.107880,3689.518066 
	C560.487671,3714.657715 625.278259,3735.771729 691.113464,3753.435791 
	C739.551514,3766.432861 788.201355,3778.762939 837.092102,3789.921143 
	C910.892212,3806.764160 985.211365,3821.165771 1060.079956,3832.499268 
	C1117.130371,3841.135498 1174.178955,3849.838867 1231.358032,3857.551758 
	C1276.693726,3863.667236 1322.183105,3868.732666 1367.683960,3873.505127 
	C1405.941162,3877.518066 1444.304321,3880.541260 1482.637085,3883.808105 
	C1515.020630,3886.568359 1547.417969,3889.182373 1579.828125,3891.607178 
	C1601.006470,3893.191650 1622.213501,3894.418457 1643.417603,3895.631592 
	C1668.607910,3897.072510 1693.802124,3898.480469 1719.007202,3899.623535 
	C1751.863159,3901.113770 1784.727295,3902.447754 1817.595947,3903.623535 
	C1841.853271,3904.491211 1866.120850,3905.128418 1890.388794,3905.626465 
	C1910.702637,3906.042969 1931.023926,3906.324707 1951.341309,3906.290771 
	C2026.324341,3906.165527 2101.307373,3905.978271 2176.289551,3905.611572 
	C2202.237305,3905.484863 2228.182129,3904.769043 2254.128418,3904.322510 
	C2254.794922,3904.311035 2255.461914,3904.310547 2256.127930,3904.282959 
	C2287.990967,3902.967285 2319.854980,3901.673828 2351.716553,3900.318848 
	C2365.651123,3899.726562 2379.582031,3899.044189 2393.511230,3898.338867 
	C2419.375732,3897.029053 2445.242432,3895.760498 2471.099121,3894.307617 
	C2494.958984,3892.966553 2518.818359,3891.572266 2542.656494,3889.895264 
	C2566.143066,3888.243408 2589.601074,3886.187256 2613.074707,3884.346680 
	C2633.585938,3882.738281 2654.135742,3881.529541 2674.607910,3879.528076 
	C2710.235596,3876.044678 2745.828857,3872.200195 2781.413330,3868.292969 
	C2812.732422,3864.854248 2844.091064,3861.645996 2875.304688,3857.400391 
	C2924.921875,3850.651367 2974.515869,3843.641357 3023.965332,3835.771973 
	C3068.521484,3828.681396 3112.999512,3820.948730 3157.276123,3812.291748 
	C3204.845215,3802.990967 3252.216553,3792.632080 3299.534668,3782.105713 
	C3364.098633,3767.742676 3427.841309,3750.205811 3490.851562,3730.121338 
	C3554.234619,3709.918457 3616.711914,3687.297852 3676.981445,3658.868896 
	C3723.422852,3636.962891 3768.442383,3612.735840 3809.463623,3581.564941 
	C3842.071777,3556.786621 3871.344482,3528.917236 3890.867432,3492.336182 
	C3907.090088,3461.938721 3912.272949,3429.770020 3904.281006,3395.847168 
	C3898.191895,3370.001709 3885.174805,3347.738770 3868.719727,3327.369629 
	C3845.719482,3298.898193 3817.596191,3276.133545 3787.516602,3255.599365 
	C3751.122803,3230.755127 3712.202393,3210.521484 3672.360352,3191.916748 
	C3620.168701,3167.545410 3566.401367,3147.141602 3511.589111,3129.674805 
	C3467.608887,3115.659912 3423.375000,3102.223633 3378.706055,3090.643555 
	C3324.391113,3076.562256 3269.658691,3063.969971 3214.810303,3052.105957 
	C3171.674316,3042.775391 3128.176025,3035.019775 3084.678711,3027.488037 
	C3036.968262,3019.226807 2989.150391,3011.503174 2941.237061,3004.523438 
	C2901.864502,2998.788086 2862.313477,2994.228271 2822.786377,2989.617432 
	C2781.296631,2984.778076 2739.764648,2980.271973 2698.207275,2976.050293 
	C2668.848145,2973.067871 2639.415527,2970.808838 2610.016846,2968.214355 
	C2592.526123,2966.670898 2575.037842,2965.103760 2558.243652,2962.410889 
	C2582.761719,2937.485352 2607.229736,2912.510254 2631.867188,2887.703369 
	C2634.593018,2884.959229 2638.057373,2882.690918 2641.569092,2881.023682 
	C2690.613770,2857.740723 2738.671631,2832.650146 2785.025879,2804.316650 
	C2826.241455,2779.124268 2866.146484,2752.046875 2904.529053,2722.731201 
	C2939.972900,2695.660400 2974.593994,2667.575439 3006.738525,2636.613770 
	C3031.904053,2612.375244 3057.261963,2588.272217 3081.272217,2562.914062 
	C3112.830078,2529.583984 3142.208496,2494.310791 3170.119873,2457.812012 
	C3220.192139,2392.334717 3264.252930,2323.056641 3302.176514,2249.913086 
	C3340.705078,2175.603516 3372.241943,2098.398682 3397.039307,2018.416260 
	C3423.596924,1932.755981 3441.862061,1845.367676 3451.467529,1756.253784 
	C3455.307861,1720.626953 3457.988525,1684.806274 3459.370361,1649.003418 
	C3460.641357,1616.073120 3459.460205,1583.047974 3459.516357,1549.075928 
z"/>
<path fill="#007af5" opacity="1.000000" stroke="none" 
	d="
M1545.724854,2963.807129 
	C1545.115601,2963.022705 1544.578247,2962.167725 1543.886353,2961.464355 
	C1521.924072,2939.139893 1499.721436,2917.045166 1478.091187,2894.403564 
	C1470.306885,2886.255127 1461.370728,2880.486572 1451.317139,2875.853271 
	C1398.028320,2851.293945 1346.782349,2822.955322 1297.223145,2791.593262 
	C1239.748047,2755.220703 1185.215454,2714.832764 1133.552612,2670.571777 
	C1098.629150,2640.651855 1065.151978,2609.164307 1033.492432,2575.853516 
	C984.370789,2524.170654 939.158081,2469.233887 898.248108,2410.748779 
	C854.440247,2348.120605 815.863342,2282.452881 782.668762,2213.661377 
	C748.326111,2142.490234 720.241577,2068.874512 698.270264,1992.937744 
	C682.262573,1937.612061 669.460449,1881.548462 660.548767,1824.669067 
	C656.027832,1795.813843 653.014771,1766.713013 649.715271,1737.678345 
	C645.734436,1702.648315 643.583557,1667.500732 643.607788,1632.216187 
	C643.618530,1616.596191 641.905273,1600.942749 642.496826,1585.362305 
	C643.807373,1550.845581 645.455200,1516.317505 648.096802,1481.880737 
	C652.958008,1418.508545 663.062195,1355.875977 676.958252,1293.866211 
	C687.511658,1246.772461 700.328674,1200.284546 715.746948,1154.552490 
	C734.049072,1100.266724 755.394226,1047.207031 779.966675,995.415405 
	C811.289734,929.395691 847.620850,866.293335 888.892761,806.040100 
	C922.590210,756.844971 958.900635,709.650940 999.078491,665.530823 
	C1016.996765,645.854370 1034.716309,625.943604 1053.549072,607.165283 
	C1085.360596,575.445801 1118.441650,545.034363 1153.182739,516.507874 
	C1209.623901,470.163116 1269.066650,428.063965 1331.903687,390.796448 
	C1398.756104,351.147491 1468.344360,317.088348 1540.770142,288.893372 
	C1600.996094,265.447693 1662.556641,246.208679 1725.463989,231.324875 
	C1771.428589,220.449722 1817.728149,211.294418 1864.651978,205.763977 
	C1896.624634,201.995682 1928.657959,198.505447 1960.753784,196.074585 
	C2007.606201,192.526093 2054.583984,192.941772 2101.517822,194.384491 
	C2125.752686,195.129440 2150.012695,196.323914 2174.156982,198.481827 
	C2230.111084,203.482803 2285.598633,211.766907 2340.632324,223.225189 
	C2393.457520,234.223709 2445.473389,248.164810 2496.646973,265.154266 
	C2545.939453,281.519135 2594.155518,300.679108 2641.378174,322.375519 
	C2708.378906,353.158936 2772.500000,389.083435 2833.753418,430.042419 
	C2885.538574,464.669952 2934.793213,502.623169 2981.579834,543.849609 
	C3018.362549,576.261047 3053.333252,610.493408 3086.642822,646.359680 
	C3133.581299,696.900452 3176.337158,750.870728 3215.172363,807.924683 
	C3246.118164,853.388062 3274.270996,900.486816 3299.895020,949.155518 
	C3342.208984,1029.523804 3375.920410,1113.355591 3401.869385,1200.328247 
	C3420.624268,1263.188599 3435.122314,1327.043091 3444.197754,1392.034058 
	C3448.190918,1420.632568 3451.481934,1449.351562 3454.178711,1478.101440 
	C3456.286865,1500.576904 3456.985840,1523.184326 3458.310303,1547.120361 
	C3458.464600,1549.158081 3458.814453,1549.677124 3459.359375,1550.064697 
	C3459.460205,1583.047974 3460.641357,1616.073120 3459.370361,1649.003418 
	C3457.988525,1684.806274 3455.307861,1720.626953 3451.467529,1756.253784 
	C3441.862061,1845.367676 3423.596924,1932.755981 3397.039307,2018.416260 
	C3372.241943,2098.398682 3340.705078,2175.603516 3302.176514,2249.913086 
	C3264.252930,2323.056641 3220.192139,2392.334717 3170.119873,2457.812012 
	C3142.208496,2494.310791 3112.830078,2529.583984 3081.272217,2562.914062 
	C3057.261963,2588.272217 3031.904053,2612.375244 3006.738525,2636.613770 
	C2974.593994,2667.575439 2939.972900,2695.660400 2904.529053,2722.731201 
	C2866.146484,2752.046875 2826.241455,2779.124268 2785.025879,2804.316650 
	C2738.671631,2832.650146 2690.613770,2857.740723 2641.569092,2881.023682 
	C2638.057373,2882.690918 2634.593018,2884.959229 2631.867188,2887.703369 
	C2607.229736,2912.510254 2582.761719,2937.485352 2557.273438,2963.218262 
	C2553.315918,2966.626953 2550.157959,2969.057861 2547.365723,2971.854004 
	C2471.832764,3047.490479 2396.334473,3123.161865 2320.851074,3198.847900 
	C2318.512939,3201.192383 2316.398926,3203.760010 2313.579590,3206.502197 
	C2255.824707,3264.168457 2198.748535,3321.633789 2141.492188,3378.919189 
	C2091.781250,3428.655518 2011.369873,3428.525879 1961.618042,3378.760498 
	C1906.236816,3323.364502 1850.936401,3267.887695 1795.583374,3212.463379 
	C1793.242554,3210.119629 1790.724976,3207.952393 1787.955811,3205.127441 
	C1709.354858,3126.072754 1631.094727,3047.586670 1552.783325,2969.152100 
	C1550.717896,2967.083496 1548.090332,2965.576172 1545.724854,2963.807129 
M1008.859924,1111.918945 
	C960.388245,1215.331421 927.650146,1323.440674 911.431458,1436.557983 
	C905.892822,1475.187134 901.982971,1513.962891 900.507812,1552.918335 
	C897.287415,1637.959351 902.019470,1722.532715 917.633484,1806.325073 
	C921.047668,1824.646973 924.334656,1843.022583 928.656250,1861.140747 
	C992.647644,2129.423828 1133.660645,2348.418457 1351.553223,2517.224609 
	C1484.899536,2620.530762 1634.712769,2689.938965 1799.467651,2726.588135 
	C1828.976074,2733.152100 1858.744507,2738.649414 1888.542603,2743.767090 
	C1903.416016,2746.321777 1918.613281,2747.079346 1933.689941,2748.340332 
	C1956.263550,2750.228271 1978.832153,2752.593262 2001.452026,2753.437256 
	C2075.043701,2756.183838 2148.369141,2753.114258 2221.291260,2742.096436 
	C2272.387695,2734.375977 2322.822510,2723.670654 2372.425049,2709.232178 
	C2736.706543,2603.196777 3025.769043,2324.783936 3145.383057,1964.791382 
	C3168.226074,1896.042358 3184.153076,1825.671997 3193.691895,1753.869873 
	C3199.181641,1712.548584 3202.796143,1671.011597 3203.070312,1629.350342 
	C3203.304443,1593.724854 3202.062988,1558.058838 3200.368408,1522.463379 
	C3199.423340,1502.613525 3196.216064,1482.871704 3194.040039,1463.079834 
	C3192.564697,1449.659912 3192.007568,1436.065918 3189.475098,1422.849365 
	C3182.587646,1386.903564 3176.333008,1350.741455 3167.251465,1315.325806 
	C3080.518311,977.083984 2842.863281,695.147339 2524.464600,551.763672 
	C2419.744629,504.605377 2310.432373,473.784149 2196.455078,459.752258 
	C2171.011719,456.619873 2145.451172,454.108765 2119.869873,452.496094 
	C2069.257324,449.305389 2018.641602,449.886749 1968.022705,453.541443 
	C1913.439087,457.482361 1859.398193,465.057983 1805.973633,476.711884 
	C1681.619629,503.838165 1564.666870,549.922913 1456.021484,616.281677 
	C1258.482910,736.935120 1109.586670,901.751770 1008.859924,1111.918945 
z"/>
<path fill="#1df1fc" opacity="1.000000" stroke="none" 
	d="
M1544.877441,2963.995117 
	C1548.090332,2965.576172 1550.717896,2967.083496 1552.783325,2969.152100 
	C1631.094727,3047.586670 1709.354858,3126.072754 1787.313477,3205.700195 
	C1770.805908,3207.882080 1754.612183,3209.010498 1738.406006,3209.919678 
	C1724.147583,3210.719727 1709.871094,3211.197021 1695.610107,3211.954590 
	C1671.741699,3213.222168 1647.873901,3214.513428 1624.015747,3215.956543 
	C1604.143555,3217.158691 1584.281860,3218.541748 1564.422241,3219.939453 
	C1546.553223,3221.197266 1528.694092,3222.594238 1510.829224,3223.910889 
	C1491.968384,3225.301514 1473.102539,3226.624512 1454.245728,3228.066895 
	C1445.645142,3228.724854 1437.048096,3229.476807 1428.472778,3230.402344 
	C1411.997681,3232.180664 1395.545532,3234.171143 1379.071777,3235.963379 
	C1364.895142,3237.505859 1350.672974,3238.661865 1336.523193,3240.410889 
	C1318.102905,3242.687744 1299.740845,3245.432129 1281.341553,3247.882812 
	C1259.647339,3250.772461 1237.876099,3253.151123 1216.254883,3256.503418 
	C1190.363770,3260.517822 1164.526489,3264.963623 1138.791260,3269.878906 
	C1102.274780,3276.852783 1065.733276,3283.802979 1029.467163,3291.943359 
	C1001.270386,3298.272461 973.358154,3305.979004 945.535156,3313.836914 
	C907.346924,3324.623047 870.053711,3337.993164 834.919434,3356.666016 
	C816.350220,3366.535156 799.011963,3378.191162 784.755737,3394.088135 
	C770.933472,3409.500977 767.469177,3434.496826 779.160339,3451.239990 
	C787.378662,3463.009521 797.427368,3472.297363 808.830811,3480.385742 
	C836.253113,3499.835205 867.074341,3512.463135 898.435730,3523.765625 
	C947.966370,3541.616455 998.836243,3554.836426 1050.240723,3565.932617 
	C1083.338623,3573.076660 1116.539429,3579.863281 1149.891602,3585.677002 
	C1182.225342,3591.313232 1214.804443,3595.548584 1247.289062,3600.309814 
	C1269.592041,3603.578613 1291.871216,3607.078613 1314.245239,3609.777100 
	C1340.576782,3612.952881 1366.999146,3615.375977 1393.382324,3618.123291 
	C1400.970337,3618.913330 1408.559814,3619.689209 1416.147461,3620.482910 
	C1427.352661,3621.655273 1438.547119,3622.942139 1449.764404,3623.983887 
	C1459.345581,3624.873291 1468.965698,3625.345947 1478.545166,3626.250244 
	C1497.686401,3628.057373 1516.796265,3630.209473 1535.947998,3631.891113 
	C1553.791748,3633.457764 1571.666382,3634.698730 1589.539551,3635.900391 
	C1611.063965,3637.347412 1632.596802,3638.682861 1654.134399,3639.917725 
	C1678.995117,3641.343262 1703.861328,3642.679443 1728.732300,3643.913574 
	C1744.991455,3644.720703 1761.261230,3645.328125 1777.529541,3645.935547 
	C1796.793579,3646.654785 1816.057129,3647.445068 1835.328125,3647.905273 
	C1869.255737,3648.715576 1903.186279,3649.557129 1937.120483,3649.904297 
	C1971.111816,3650.251953 2005.114624,3650.404297 2039.102783,3649.938232 
	C2094.696533,3649.176025 2150.303223,3651.787842 2205.899414,3648.261230 
	C2234.757324,3646.430908 2263.749756,3646.732910 2292.679932,3646.022949 
	C2319.612061,3645.362061 2346.542236,3644.637451 2373.473389,3643.936523 
	C2374.471924,3643.910645 2375.470215,3643.849854 2376.467529,3643.784912 
	C2395.669678,3642.530762 2414.863037,3641.118408 2434.076172,3640.063477 
	C2450.995361,3639.134277 2467.941162,3638.699951 2484.866211,3637.862793 
	C2495.472412,3637.338135 2506.074219,3636.615723 2516.655762,3635.723389 
	C2529.537109,3634.636719 2542.379395,3633.065918 2555.267822,3632.096191 
	C2568.178467,3631.124756 2581.132080,3630.736816 2594.053955,3629.898926 
	C2602.328613,3629.362549 2610.590332,3628.571289 2618.840332,3627.721924 
	C2636.644531,3625.889648 2654.426270,3623.831055 2672.238525,3622.082275 
	C2688.413330,3620.494629 2704.646973,3619.471436 2720.799805,3617.698975 
	C2741.554443,3615.420898 2762.249512,3612.602295 2782.979248,3610.091553 
	C2801.084717,3607.898682 2819.239990,3606.083252 2837.305420,3603.604248 
	C2858.325195,3600.719482 2879.295410,3597.446533 2900.242920,3594.067871 
	C2929.720459,3589.313721 2959.277100,3584.925781 2988.585205,3579.269531 
	C3037.193604,3569.888428 3085.591064,3559.519287 3133.336182,3546.209473 
	C3181.222168,3532.860840 3228.230713,3517.442139 3272.305420,3493.971436 
	C3289.853271,3484.626709 3305.695557,3473.170654 3318.638672,3458.151123 
	C3329.603271,3445.426758 3335.502441,3430.502441 3329.274902,3413.900879 
	C3326.081055,3405.387451 3320.829834,3397.179932 3314.842773,3390.279541 
	C3303.389404,3377.077637 3288.458984,3367.964355 3273.223633,3359.693848 
	C3241.228516,3342.325195 3207.436279,3329.331299 3172.733154,3318.386719 
	C3112.391602,3299.355957 3050.789551,3285.696777 2988.702637,3274.019043 
	C2962.946777,3269.174561 2937.132080,3264.607910 2911.268799,3260.376953 
	C2891.635254,3257.164795 2871.892090,3254.612305 2852.179199,3251.899170 
	C2836.413818,3249.729248 2820.619629,3247.767334 2804.840088,3245.700684 
	C2785.449219,3243.160889 2766.092773,3240.318604 2746.661621,3238.137939 
	C2725.243896,3235.734131 2703.757812,3233.936768 2682.302490,3231.866699 
	C2674.049072,3231.070557 2665.793457,3230.292725 2657.546631,3229.433105 
	C2646.999512,3228.333984 2636.476318,3226.968750 2625.912842,3226.070801 
	C2614.669434,3225.115723 2603.375732,3224.752441 2592.130859,3223.811035 
	C2570.655029,3222.012695 2549.212158,3219.809814 2527.729248,3218.107910 
	C2507.883301,3216.535645 2488.009766,3215.291016 2468.136230,3214.098389 
	C2443.944336,3212.646973 2419.750488,3211.157471 2395.538330,3210.134033 
	C2371.620361,3209.122559 2347.676270,3208.726807 2323.749023,3207.910156 
	C2320.544189,3207.800537 2317.369141,3206.807373 2314.180420,3206.223389 
	C2316.398926,3203.760010 2318.512939,3201.192383 2320.851074,3198.847900 
	C2396.334473,3123.161865 2471.832764,3047.490479 2547.365723,2971.854004 
	C2550.157959,2969.057861 2553.315918,2966.626953 2556.925781,2963.786621 
	C2575.037842,2965.103760 2592.526123,2966.670898 2610.016846,2968.214355 
	C2639.415527,2970.808838 2668.848145,2973.067871 2698.207275,2976.050293 
	C2739.764648,2980.271973 2781.296631,2984.778076 2822.786377,2989.617432 
	C2862.313477,2994.228271 2901.864502,2998.788086 2941.237061,3004.523438 
	C2989.150391,3011.503174 3036.968262,3019.226807 3084.678711,3027.488037 
	C3128.176025,3035.019775 3171.674316,3042.775391 3214.810303,3052.105957 
	C3269.658691,3063.969971 3324.391113,3076.562256 3378.706055,3090.643555 
	C3423.375000,3102.223633 3467.608887,3115.659912 3511.589111,3129.674805 
	C3566.401367,3147.141602 3620.168701,3167.545410 3672.360352,3191.916748 
	C3712.202393,3210.521484 3751.122803,3230.755127 3787.516602,3255.599365 
	C3817.596191,3276.133545 3845.719482,3298.898193 3868.719727,3327.369629 
	C3885.174805,3347.738770 3898.191895,3370.001709 3904.281006,3395.847168 
	C3912.272949,3429.770020 3907.090088,3461.938721 3890.867432,3492.336182 
	C3871.344482,3528.917236 3842.071777,3556.786621 3809.463623,3581.564941 
	C3768.442383,3612.735840 3723.422852,3636.962891 3676.981445,3658.868896 
	C3616.711914,3687.297852 3554.234619,3709.918457 3490.851562,3730.121338 
	C3427.841309,3750.205811 3364.098633,3767.742676 3299.534668,3782.105713 
	C3252.216553,3792.632080 3204.845215,3802.990967 3157.276123,3812.291748 
	C3112.999512,3820.948730 3068.521484,3828.681396 3023.965332,3835.771973 
	C2974.515869,3843.641357 2924.921875,3850.651367 2875.304688,3857.400391 
	C2844.091064,3861.645996 2812.732422,3864.854248 2781.413330,3868.292969 
	C2745.828857,3872.200195 2710.235596,3876.044678 2674.607910,3879.528076 
	C2654.135742,3881.529541 2633.585938,3882.738281 2613.074707,3884.346680 
	C2589.601074,3886.187256 2566.143066,3888.243408 2542.656494,3889.895264 
	C2518.818359,3891.572266 2494.958984,3892.966553 2471.099121,3894.307617 
	C2445.242432,3895.760498 2419.375732,3897.029053 2393.511230,3898.338867 
	C2379.582031,3899.044189 2365.651123,3899.726562 2351.716553,3900.318848 
	C2319.854980,3901.673828 2287.990967,3902.967285 2256.127930,3904.282959 
	C2255.461914,3904.310547 2254.794922,3904.311035 2254.128418,3904.322510 
	C2228.182129,3904.769043 2202.237305,3905.484863 2176.289551,3905.611572 
	C2101.307373,3905.978271 2026.324341,3906.165527 1951.341309,3906.290771 
	C1931.023926,3906.324707 1910.702637,3906.042969 1890.388794,3905.626465 
	C1866.120850,3905.128418 1841.853271,3904.491211 1817.595947,3903.623535 
	C1784.727295,3902.447754 1751.863159,3901.113770 1719.007202,3899.623535 
	C1693.802124,3898.480469 1668.607910,3897.072510 1643.417603,3895.631592 
	C1622.213501,3894.418457 1601.006470,3893.191650 1579.828125,3891.607178 
	C1547.417969,3889.182373 1515.020630,3886.568359 1482.637085,3883.808105 
	C1444.304321,3880.541260 1405.941162,3877.518066 1367.683960,3873.505127 
	C1322.183105,3868.732666 1276.693726,3863.667236 1231.358032,3857.551758 
	C1174.178955,3849.838867 1117.130371,3841.135498 1060.079956,3832.499268 
	C985.211365,3821.165771 910.892212,3806.764160 837.092102,3789.921143 
	C788.201355,3778.762939 739.551514,3766.432861 691.113464,3753.435791 
	C625.278259,3735.771729 560.487671,3714.657715 497.107880,3689.518066 
	C434.250153,3664.586182 372.989624,3636.285156 316.751434,3598.240723 
	C283.262054,3575.585449 252.178391,3550.166504 227.876724,3517.365967 
	C213.655685,3498.171387 202.594513,3477.340576 198.017670,3453.755615 
	C192.912964,3427.451172 194.747131,3401.600830 204.881454,3376.412354 
	C217.612213,3344.770264 238.548904,3319.120117 263.294403,3296.529297 
	C311.483032,3252.535645 367.867065,3221.340820 426.552948,3193.889160 
	C513.249634,3153.334961 603.846985,3123.755859 695.844421,3098.157227 
	C772.359558,3076.866699 849.635437,3058.652832 927.711670,3044.171875 
	C996.214233,3031.466553 1064.918579,3019.789551 1133.688232,3008.608643 
	C1170.664429,3002.596436 1207.916626,2998.170898 1245.131714,2993.768311 
	C1293.860352,2988.004150 1342.656372,2982.788574 1391.460327,2977.690430 
	C1420.480103,2974.659180 1449.565552,2972.243652 1478.631958,2969.671387 
	C1500.422485,2967.742676 1522.229980,2966.005859 1544.877441,2963.995117 
z"/>
<path fill="#FFFFFF" opacity="1.000000" stroke="none" 
	d="
M1009.216248,1111.260010 
	C1109.586670,901.751770 1258.482910,736.935120 1456.021484,616.281677 
	C1564.666870,549.922913 1681.619629,503.838165 1805.973633,476.711884 
	C1859.398193,465.057983 1913.439087,457.482361 1968.022705,453.541443 
	C2018.641602,449.886749 2069.257324,449.305389 2119.869873,452.496094 
	C2145.451172,454.108765 2171.011719,456.619873 2196.455078,459.752258 
	C2310.432373,473.784149 2419.744629,504.605377 2524.464600,551.763672 
	C2842.863281,695.147339 3080.518311,977.083984 3167.251465,1315.325806 
	C3176.333008,1350.741455 3182.587646,1386.903564 3189.475098,1422.849365 
	C3192.007568,1436.065918 3192.564697,1449.659912 3194.040039,1463.079834 
	C3196.216064,1482.871704 3199.423340,1502.613525 3200.368408,1522.463379 
	C3202.062988,1558.058838 3203.304443,1593.724854 3203.070312,1629.350342 
	C3202.796143,1671.011597 3199.181641,1712.548584 3193.691895,1753.869873 
	C3184.153076,1825.671997 3168.226074,1896.042358 3145.383057,1964.791382 
	C3025.769043,2324.783936 2736.706543,2603.196777 2372.425049,2709.232178 
	C2322.822510,2723.670654 2272.387695,2734.375977 2221.291260,2742.096436 
	C2148.369141,2753.114258 2075.043701,2756.183838 2001.452026,2753.437256 
	C1978.832153,2752.593262 1956.263550,2750.228271 1933.689941,2748.340332 
	C1918.613281,2747.079346 1903.416016,2746.321777 1888.542603,2743.767090 
	C1858.744507,2738.649414 1828.976074,2733.152100 1799.467651,2726.588135 
	C1634.712769,2689.938965 1484.899536,2620.530762 1351.553223,2517.224609 
	C1133.660645,2348.418457 992.647644,2129.423828 928.656250,1861.140747 
	C924.334656,1843.022583 921.047668,1824.646973 917.633484,1806.325073 
	C902.019470,1722.532715 897.287415,1637.959351 900.507812,1552.918335 
	C901.982971,1513.962891 905.892822,1475.187134 911.431458,1436.557983 
	C927.650146,1323.440674 960.388245,1215.331421 1009.216248,1111.260010 
M2629.845947,1538.304565 
	C2671.458008,1538.305298 2713.080078,1537.749268 2754.678711,1538.494873 
	C2784.280273,1539.025391 2819.258545,1516.072754 2819.551514,1473.980957 
	C2819.994141,1410.400879 2819.900146,1346.813599 2819.406738,1283.234253 
	C2819.336182,1274.180786 2817.269287,1264.454224 2813.498047,1256.246826 
	C2801.979980,1231.179810 2781.407715,1218.630249 2753.935547,1218.410034 
	C2711.993408,1218.073608 2670.046387,1218.327515 2628.028564,1216.415771 
	C2627.944824,1195.467896 2627.861084,1174.520142 2627.675293,1151.754761 
	C2627.670654,1091.433350 2627.792480,1031.111450 2627.538574,970.791016 
	C2627.495361,960.520203 2626.841553,950.048401 2624.763916,940.022827 
	C2611.832764,877.618164 2559.574219,834.483154 2495.716064,834.435913 
	C2199.441162,834.216675 1903.166382,834.320984 1606.891602,834.442871 
	C1598.609741,834.446289 1590.192749,835.261719 1582.068237,836.863159 
	C1515.141846,850.055115 1474.705566,908.504700 1475.595337,966.215332 
	C1476.062744,996.535461 1475.638306,1026.868774 1475.681396,1057.196167 
	C1475.727417,1089.518066 1475.849976,1121.840088 1475.890137,1156.015991 
	C1475.821777,1176.909180 1475.753540,1197.802490 1473.869141,1218.473022 
	C1431.882446,1218.424805 1389.891724,1217.991821 1347.910156,1218.436279 
	C1305.810669,1218.881958 1283.140747,1253.807739 1283.477417,1283.506104 
	C1284.195190,1346.813721 1283.666626,1410.134888 1283.755615,1473.450439 
	C1283.762573,1478.411987 1284.062988,1483.493042 1285.142334,1488.313599 
	C1291.737915,1517.772949 1316.686279,1538.048584 1346.924927,1538.244263 
	C1383.913086,1538.483643 1420.903931,1538.336914 1457.893555,1538.294434 
	C1463.879272,1538.287476 1469.864868,1537.954712 1475.886841,1539.675415 
	C1475.970825,1560.552612 1476.054810,1581.429810 1475.838745,1604.122437 
	C1475.785767,1605.120361 1475.686401,1606.118286 1475.686401,1607.116211 
	C1475.680420,1754.105591 1475.491211,1901.095459 1475.764404,2048.084229 
	C1475.896729,2119.354736 1532.128174,2176.322754 1603.516724,2180.055664 
	C1603.569336,2206.359619 1603.606445,2232.663574 1603.681885,2258.967529 
	C1603.713013,2269.831787 1604.441284,2280.492432 1607.882935,2291.045410 
	C1619.481689,2326.609863 1642.456787,2351.102295 1677.514648,2364.122314 
	C1683.626099,2366.392090 1689.952026,2369.271973 1696.280273,2369.548584 
	C1715.552734,2370.389893 1734.876465,2369.995605 1754.176880,2370.289307 
	C1763.213745,2370.426758 1771.933105,2368.707520 1780.349609,2365.871094 
	C1824.355469,2351.041504 1851.311768,2320.976807 1857.980713,2274.808594 
	C1860.530518,2257.156982 1859.266479,2238.948730 1859.651123,2220.992432 
	C1859.957397,2206.699219 1860.127441,2192.403320 1862.178101,2178.310303 
	C1989.175903,2178.286865 2116.173584,2178.263428 2243.493164,2180.060059 
	C2243.553467,2206.363770 2243.605469,2232.667725 2243.678711,2258.971436 
	C2243.708984,2269.838867 2244.449951,2280.499756 2247.887695,2291.048584 
	C2259.478516,2326.616699 2282.461182,2351.106934 2317.521240,2364.124268 
	C2323.633057,2366.393311 2329.958984,2369.271240 2336.287598,2369.547852 
	C2355.560547,2370.389160 2374.884277,2369.994873 2394.185303,2370.289062 
	C2403.222412,2370.427246 2411.942139,2368.706299 2420.358154,2365.869385 
	C2464.363525,2351.035889 2490.926025,2320.914307 2498.124756,2274.815430 
	C2499.907959,2263.395508 2499.421387,2251.592529 2499.622070,2239.959717 
	C2499.978271,2219.334961 2500.061279,2198.705322 2501.997559,2178.214355 
	C2505.980469,2177.947754 2510.006348,2177.967041 2513.939697,2177.371582 
	C2580.359375,2167.322021 2627.456787,2113.406494 2627.573730,2046.144409 
	C2627.830322,1898.364380 2627.630127,1750.583496 2627.796143,1600.832397 
	C2627.854004,1579.968018 2627.911621,1559.103760 2629.845947,1538.304565 
z"/>
<path fill="#15b4f9" opacity="1.000000" stroke="none" 
	d="
M2313.579590,3206.502197 
	C2317.369141,3206.807373 2320.544189,3207.800537 2323.749023,3207.910156 
	C2347.676270,3208.726807 2371.620361,3209.122559 2395.538330,3210.134033 
	C2419.750488,3211.157471 2443.944336,3212.646973 2468.136230,3214.098389 
	C2488.009766,3215.291016 2507.883301,3216.535645 2527.729248,3218.107910 
	C2549.212158,3219.809814 2570.655029,3222.012695 2592.130859,3223.811035 
	C2603.375732,3224.752441 2614.669434,3225.115723 2625.912842,3226.070801 
	C2636.476318,3226.968750 2646.999512,3228.333984 2657.546631,3229.433105 
	C2665.793457,3230.292725 2674.049072,3231.070557 2682.302490,3231.866699 
	C2703.757812,3233.936768 2725.243896,3235.734131 2746.661621,3238.137939 
	C2766.092773,3240.318604 2785.449219,3243.160889 2804.840088,3245.700684 
	C2820.619629,3247.767334 2836.413818,3249.729248 2852.179199,3251.899170 
	C2871.892090,3254.612305 2891.635254,3257.164795 2911.268799,3260.376953 
	C2937.132080,3264.607910 2962.946777,3269.174561 2988.702637,3274.019043 
	C3050.789551,3285.696777 3112.391602,3299.355957 3172.733154,3318.386719 
	C3207.436279,3329.331299 3241.228516,3342.325195 3273.223633,3359.693848 
	C3288.458984,3367.964355 3303.389404,3377.077637 3314.842773,3390.279541 
	C3320.829834,3397.179932 3326.081055,3405.387451 3329.274902,3413.900879 
	C3335.502441,3430.502441 3329.603271,3445.426758 3318.638672,3458.151123 
	C3305.695557,3473.170654 3289.853271,3484.626709 3272.305420,3493.971436 
	C3228.230713,3517.442139 3181.222168,3532.860840 3133.336182,3546.209473 
	C3085.591064,3559.519287 3037.193604,3569.888428 2988.585205,3579.269531 
	C2959.277100,3584.925781 2929.720459,3589.313721 2900.242920,3594.067871 
	C2879.295410,3597.446533 2858.325195,3600.719482 2837.305420,3603.604248 
	C2819.239990,3606.083252 2801.084717,3607.898682 2782.979248,3610.091553 
	C2762.249512,3612.602295 2741.554443,3615.420898 2720.799805,3617.698975 
	C2704.646973,3619.471436 2688.413330,3620.494629 2672.238525,3622.082275 
	C2654.426270,3623.831055 2636.644531,3625.889648 2618.840332,3627.721924 
	C2610.590332,3628.571289 2602.328613,3629.362549 2594.053955,3629.898926 
	C2581.132080,3630.736816 2568.178467,3631.124756 2555.267822,3632.096191 
	C2542.379395,3633.065918 2529.537109,3634.636719 2516.655762,3635.723389 
	C2506.074219,3636.615723 2495.472412,3637.338135 2484.866211,3637.862793 
	C2467.941162,3638.699951 2450.995361,3639.134277 2434.076172,3640.063477 
	C2414.863037,3641.118408 2395.669678,3642.530762 2376.467529,3643.784912 
	C2375.470215,3643.849854 2374.471924,3643.910645 2373.473389,3643.936523 
	C2346.542236,3644.637451 2319.612061,3645.362061 2292.679932,3646.022949 
	C2263.749756,3646.732910 2234.757324,3646.430908 2205.899414,3648.261230 
	C2150.303223,3651.787842 2094.696533,3649.176025 2039.102783,3649.938232 
	C2005.114624,3650.404297 1971.111816,3650.251953 1937.120483,3649.904297 
	C1903.186279,3649.557129 1869.255737,3648.715576 1835.328125,3647.905273 
	C1816.057129,3647.445068 1796.793579,3646.654785 1777.529541,3645.935547 
	C1761.261230,3645.328125 1744.991455,3644.720703 1728.732300,3643.913574 
	C1703.861328,3642.679443 1678.995117,3641.343262 1654.134399,3639.917725 
	C1632.596802,3638.682861 1611.063965,3637.347412 1589.539551,3635.900391 
	C1571.666382,3634.698730 1553.791748,3633.457764 1535.947998,3631.891113 
	C1516.796265,3630.209473 1497.686401,3628.057373 1478.545166,3626.250244 
	C1468.965698,3625.345947 1459.345581,3624.873291 1449.764404,3623.983887 
	C1438.547119,3622.942139 1427.352661,3621.655273 1416.147461,3620.482910 
	C1408.559814,3619.689209 1400.970337,3618.913330 1393.382324,3618.123291 
	C1366.999146,3615.375977 1340.576782,3612.952881 1314.245239,3609.777100 
	C1291.871216,3607.078613 1269.592041,3603.578613 1247.289062,3600.309814 
	C1214.804443,3595.548584 1182.225342,3591.313232 1149.891602,3585.677002 
	C1116.539429,3579.863281 1083.338623,3573.076660 1050.240723,3565.932617 
	C998.836243,3554.836426 947.966370,3541.616455 898.435730,3523.765625 
	C867.074341,3512.463135 836.253113,3499.835205 808.830811,3480.385742 
	C797.427368,3472.297363 787.378662,3463.009521 779.160339,3451.239990 
	C767.469177,3434.496826 770.933472,3409.500977 784.755737,3394.088135 
	C799.011963,3378.191162 816.350220,3366.535156 834.919434,3356.666016 
	C870.053711,3337.993164 907.346924,3324.623047 945.535156,3313.836914 
	C973.358154,3305.979004 1001.270386,3298.272461 1029.467163,3291.943359 
	C1065.733276,3283.802979 1102.274780,3276.852783 1138.791260,3269.878906 
	C1164.526489,3264.963623 1190.363770,3260.517822 1216.254883,3256.503418 
	C1237.876099,3253.151123 1259.647339,3250.772461 1281.341553,3247.882812 
	C1299.740845,3245.432129 1318.102905,3242.687744 1336.523193,3240.410889 
	C1350.672974,3238.661865 1364.895142,3237.505859 1379.071777,3235.963379 
	C1395.545532,3234.171143 1411.997681,3232.180664 1428.472778,3230.402344 
	C1437.048096,3229.476807 1445.645142,3228.724854 1454.245728,3228.066895 
	C1473.102539,3226.624512 1491.968384,3225.301514 1510.829224,3223.910889 
	C1528.694092,3222.594238 1546.553223,3221.197266 1564.422241,3219.939453 
	C1584.281860,3218.541748 1604.143555,3217.158691 1624.015747,3215.956543 
	C1647.873901,3214.513428 1671.741699,3213.222168 1695.610107,3211.954590 
	C1709.871094,3211.197021 1724.147583,3210.719727 1738.406006,3209.919678 
	C1754.612183,3209.010498 1770.805908,3207.882080 1787.647461,3206.275879 
	C1790.724976,3207.952393 1793.242554,3210.119629 1795.583374,3212.463379 
	C1850.936401,3267.887695 1906.236816,3323.364502 1961.618042,3378.760498 
	C2011.369873,3428.525879 2091.781250,3428.655518 2141.492188,3378.919189 
	C2198.748535,3321.633789 2255.824707,3264.168457 2313.579590,3206.502197 
z"/>
<path fill="#212529" opacity="1.000000" stroke="none" 
	d="
M1603.243774,2178.227051 
	C1532.128174,2176.322754 1475.896729,2119.354736 1475.764404,2048.084229 
	C1475.491211,1901.095459 1475.680420,1754.105591 1475.686401,1607.116211 
	C1475.686401,1606.118286 1475.785767,1605.120361 1476.917236,1603.223633 
	C1856.546997,1602.325684 2235.098145,1602.324829 2613.649414,1602.347168 
	C2618.305176,1602.347534 2622.960693,1602.644531 2627.616455,1602.802979 
	C2627.630127,1750.583496 2627.830322,1898.364380 2627.573730,2046.144409 
	C2627.456787,2113.406494 2580.359375,2167.322021 2513.939697,2177.371582 
	C2510.006348,2177.967041 2505.980469,2177.947754 2500.174072,2178.158936 
	C2440.535645,2178.072266 2382.720459,2178.012939 2324.905518,2178.022217 
	C2297.660889,2178.026611 2270.416016,2178.163086 2243.171387,2178.239746 
	C2116.173584,2178.263428 1989.175903,2178.286865 1860.307617,2178.212402 
	C1807.929443,2178.079590 1757.421753,2178.009277 1706.914062,2178.021973 
	C1672.357300,2178.030518 1637.800537,2178.154541 1603.243774,2178.227051 
M1668.542114,1910.374023 
	C1668.257080,1914.354370 1667.734741,1918.334106 1667.723511,1922.315186 
	C1667.602783,1965.528809 1709.015869,1996.257568 1750.370117,1983.698608 
	C1782.457520,1973.953857 1801.544556,1940.243042 1793.693726,1907.182007 
	C1786.027222,1874.897339 1753.733398,1853.541992 1720.829590,1859.622681 
	C1693.169800,1864.734131 1676.159790,1881.664551 1668.542114,1910.374023 
M2384.692139,1859.914551 
	C2374.051514,1857.386475 2363.538330,1858.091431 2353.145752,1861.244141 
	C2320.863281,1871.037720 2301.471924,1904.081055 2309.036621,1936.364746 
	C2316.850342,1969.711548 2348.197998,1990.974976 2381.822754,1985.736206 
	C2416.063232,1980.401489 2440.479980,1946.952271 2434.578857,1912.897827 
	C2429.777344,1885.190308 2413.197266,1867.889282 2384.692139,1859.914551 
z"/>
<path fill="#bcddff" opacity="1.000000" stroke="none" 
	d="
M2627.706299,1601.817627 
	C2622.960693,1602.644531 2618.305176,1602.347534 2613.649414,1602.347168 
	C2235.098145,1602.324829 1856.546997,1602.325684 1477.067383,1602.315918 
	C1476.054810,1581.429810 1475.970825,1560.552612 1475.810547,1537.801514 
	C1475.718018,1430.183594 1475.701660,1324.439697 1475.685181,1218.695679 
	C1475.753540,1197.802490 1475.821777,1176.909180 1476.853271,1155.164795 
	C1857.832642,1154.321533 2237.848877,1154.331665 2617.865234,1154.306030 
	C2621.169189,1154.305786 2624.473389,1153.827393 2627.777344,1153.572266 
	C2627.861084,1174.520142 2627.944824,1195.467896 2627.959717,1218.283203 
	C2627.826904,1222.143066 2627.706787,1224.135254 2627.706543,1226.127563 
	C2627.697266,1327.842041 2627.696533,1429.556641 2627.709473,1531.271118 
	C2627.709717,1533.593872 2627.878906,1535.916626 2627.969238,1538.239380 
	C2627.911621,1559.103760 2627.854004,1579.968018 2627.706299,1601.817627 
z"/>
<path fill="#212529" opacity="1.000000" stroke="none" 
	d="
M2627.726318,1152.663574 
	C2624.473389,1153.827393 2621.169189,1154.305786 2617.865234,1154.306030 
	C2237.848877,1154.331665 1857.832642,1154.321533 1476.877686,1154.237793 
	C1475.849976,1121.840088 1475.727417,1089.518066 1475.681396,1057.196167 
	C1475.638306,1026.868774 1476.062744,996.535461 1475.595337,966.215332 
	C1474.705566,908.504700 1515.141846,850.055115 1582.068237,836.863159 
	C1590.192749,835.261719 1598.609741,834.446289 1606.891602,834.442871 
	C1903.166382,834.320984 2199.441162,834.216675 2495.716064,834.435913 
	C2559.574219,834.483154 2611.832764,877.618164 2624.763916,940.022827 
	C2626.841553,950.048401 2627.495361,960.520203 2627.538574,970.791016 
	C2627.792480,1031.111450 2627.670654,1091.433350 2627.726318,1152.663574 
z"/>
<path fill="#1dd3fc" opacity="1.000000" stroke="none" 
	d="
M1474.777100,1218.584351 
	C1475.701660,1324.439697 1475.718018,1430.183594 1475.792480,1536.850098 
	C1469.864868,1537.954712 1463.879272,1538.287476 1457.893555,1538.294434 
	C1420.903931,1538.336914 1383.913086,1538.483643 1346.924927,1538.244263 
	C1316.686279,1538.048584 1291.737915,1517.772949 1285.142334,1488.313599 
	C1284.062988,1483.493042 1283.762573,1478.411987 1283.755615,1473.450439 
	C1283.666626,1410.134888 1284.195190,1346.813721 1283.477417,1283.506104 
	C1283.140747,1253.807739 1305.810669,1218.881958 1347.910156,1218.436279 
	C1389.891724,1217.991821 1431.882446,1218.424805 1474.777100,1218.584351 
z"/>
<path fill="#1dd3fc" opacity="1.000000" stroke="none" 
	d="
M2628.907715,1538.271973 
	C2627.878906,1535.916626 2627.709717,1533.593872 2627.709473,1531.271118 
	C2627.696533,1429.556641 2627.697266,1327.842041 2627.706543,1226.127563 
	C2627.706787,1224.135254 2627.826904,1222.143066 2627.996094,1219.240723 
	C2670.046387,1218.327515 2711.993408,1218.073608 2753.935547,1218.410034 
	C2781.407715,1218.630249 2801.979980,1231.179810 2813.498047,1256.246826 
	C2817.269287,1264.454224 2819.336182,1274.180786 2819.406738,1283.234253 
	C2819.900146,1346.813599 2819.994141,1410.400879 2819.551514,1473.980957 
	C2819.258545,1516.072754 2784.280273,1539.025391 2754.678711,1538.494873 
	C2713.080078,1537.749268 2671.458008,1538.305298 2628.907715,1538.271973 
z"/>
<path fill="#121416" opacity="1.000000" stroke="none" 
	d="
M1603.380249,2179.141357 
	C1637.800537,2178.154541 1672.357300,2178.030518 1706.914062,2178.021973 
	C1757.421753,2178.009277 1807.929443,2178.079590 1859.397583,2178.111816 
	C1860.127441,2192.403320 1859.957397,2206.699219 1859.651123,2220.992432 
	C1859.266479,2238.948730 1860.530518,2257.156982 1857.980713,2274.808594 
	C1851.311768,2320.976807 1824.355469,2351.041504 1780.349609,2365.871094 
	C1771.933105,2368.707520 1763.213745,2370.426758 1754.176880,2370.289307 
	C1734.876465,2369.995605 1715.552734,2370.389893 1696.280273,2369.548584 
	C1689.952026,2369.271973 1683.626099,2366.392090 1677.514648,2364.122314 
	C1642.456787,2351.102295 1619.481689,2326.609863 1607.882935,2291.045410 
	C1604.441284,2280.492432 1603.713013,2269.831787 1603.681885,2258.967529 
	C1603.606445,2232.663574 1603.569336,2206.359619 1603.380249,2179.141357 
z"/>
<path fill="#121416" opacity="1.000000" stroke="none" 
	d="
M2243.332275,2179.149902 
	C2270.416016,2178.163086 2297.660889,2178.026611 2324.905518,2178.022217 
	C2382.720459,2178.012939 2440.535645,2178.072266 2499.304688,2178.090820 
	C2500.061279,2198.705322 2499.978271,2219.334961 2499.622070,2239.959717 
	C2499.421387,2251.592529 2499.907959,2263.395508 2498.124756,2274.815430 
	C2490.926025,2320.914307 2464.363525,2351.035889 2420.358154,2365.869385 
	C2411.942139,2368.706299 2403.222412,2370.427246 2394.185303,2370.289062 
	C2374.884277,2369.994873 2355.560547,2370.389160 2336.287598,2369.547852 
	C2329.958984,2369.271240 2323.633057,2366.393311 2317.521240,2364.124268 
	C2282.461182,2351.106934 2259.478516,2326.616699 2247.887695,2291.048584 
	C2244.449951,2280.499756 2243.708984,2269.838867 2243.678711,2258.971436 
	C2243.605469,2232.667725 2243.553467,2206.363770 2243.332275,2179.149902 
z"/>
<path fill="#fddf00" opacity="1.000000" stroke="none" 
	d="
M1668.774658,1909.544189 
	C1676.159790,1881.664551 1693.169800,1864.734131 1720.829590,1859.622681 
	C1753.733398,1853.541992 1786.027222,1874.897339 1793.693726,1907.182007 
	C1801.544556,1940.243042 1782.457520,1973.953857 1750.370117,1983.698608 
	C1709.015869,1996.257568 1667.602783,1965.528809 1667.723511,1922.315186 
	C1667.734741,1918.334106 1668.257080,1914.354370 1668.774658,1909.544189 
z"/>
<path fill="#fddf00" opacity="1.000000" stroke="none" 
	d="
M2385.512451,1860.051270 
	C2413.197266,1867.889282 2429.777344,1885.190308 2434.578857,1912.897827 
	C2440.479980,1946.952271 2416.063232,1980.401489 2381.822754,1985.736206 
	C2348.197998,1990.974976 2316.850342,1969.711548 2309.036621,1936.364746 
	C2301.471924,1904.081055 2320.863281,1871.037720 2353.145752,1861.244141 
	C2363.538330,1858.091431 2374.051514,1857.386475 2385.512451,1860.051270 
z"/>
</svg>