<?xml version="1.0" encoding="utf-8"?>
<svg version="1.1" id="Layer_1" xmlns="http://www.w3.org/2000/svg" xmlns:xlink="http://www.w3.org/1999/xlink" x="0px"
     y="0px"
     viewBox="0 0 122.88 122.88"
     style="enable-background:new 0 0 122.88 122.88" xml:space="preserve">
    <g>
        <path d="M 68.225 13.49 C 78.665 14.98 88.015 19.85 95.135 26.97 C 102.425 34.26 107.365 43.9 108.715 54.65 L 122.885 54.65 L 122.885 68.23 L 108.495 68.23 C 106.875 78.36 102.075 87.43 95.135 94.36 C 88.025 101.47 78.665 106.35 68.225 107.84 L 68.225 122.88 L 54.645 122.88 L 54.645 107.84 C 44.205 106.35 34.855 101.48 27.745 94.36 C 20.805 87.42 16.005 78.36 14.385 68.23 L -0.005 68.23 L -0.005 54.65 L 14.155 54.65 C 15.505 43.9 20.445 34.26 27.735 26.97 C 34.845 19.86 44.195 14.98 54.635 13.49 L 54.635 0 L 68.215 0 L 68.215 13.49 L 68.225 13.49 Z M 88.995 33.11 C 81.945 26.06 72.195 21.69 61.435 21.69 C 50.675 21.69 40.925 26.05 33.875 33.11 C 26.825 40.16 22.455 49.91 22.455 60.67 C 22.455 71.43 26.815 81.18 33.875 88.23 C 40.925 95.28 50.675 99.65 61.435 99.65 C 72.195 99.65 81.945 95.29 88.995 88.23 C 96.045 81.18 100.415 71.43 100.415 60.67 C 100.405 49.9 96.045 40.16 88.995 33.11 Z" style="fill: rgb(158, 205, 255); opacity: 0.8;"></path>
        <path d="M 61.44 36.19 C 75.39 36.19 86.69 47.5 86.69 61.44 C 86.69 75.39 75.38 86.69 61.44 86.69 C 47.49 86.69 36.19 75.38 36.19 61.44 C 36.19 47.5 47.49 36.19 61.44 36.19 Z" style="fill: rgb(55, 104, 255);opacity: 0.8;"></path>
   </g>
</svg>